<svg width="10" height="6" viewBox="0 0 10 6" fill="none" xmlns="http://www.w3.org/2000/svg">
<g clip-path="url(#clip0_267_1805)">
<path d="M5 4.31638L1.51121 1.08305C1.4831 1.05643 1.44972 1.03538 1.41301 1.02113C1.37629 1.00687 1.33698 0.999696 1.29734 1.00001C1.25769 1.00032 1.21851 1.00812 1.18205 1.02295C1.14559 1.03779 1.11259 1.05936 1.08494 1.08642C1.05729 1.11348 1.03555 1.1455 1.02098 1.18061C1.00641 1.21573 0.9993 1.25325 1.00005 1.291C1.00081 1.32875 1.00942 1.36599 1.02538 1.40055C1.04134 1.43511 1.06434 1.46631 1.09305 1.49235L4.79092 4.91911C4.84689 4.97098 4.92191 5 5 5C5.07809 5 5.15311 4.97098 5.20908 4.91911L8.90695 1.49235C8.93566 1.46631 8.95866 1.43511 8.97462 1.40055C8.99058 1.36599 8.99919 1.32875 8.99995 1.291C9.0007 1.25325 8.99359 1.21573 8.97902 1.18061C8.96445 1.1455 8.94271 1.11348 8.91506 1.08642C8.88742 1.05936 8.85441 1.03779 8.81795 1.02295C8.78149 1.00812 8.74231 1.00032 8.70266 1.00001C8.66302 0.999696 8.62371 1.00687 8.58699 1.02113C8.55028 1.03538 8.5169 1.05643 8.48879 1.08305L5 4.31638Z" fill="black"/>
</g>
<defs>
<clipPath id="clip0_267_1805">
<rect width="6" height="10" fill="white" transform="matrix(0 -1 1 0 0 6)"/>
</clipPath>
</defs>
</svg>
