<svg width="19" height="19" viewBox="0 0 19 19" fill="none" xmlns="http://www.w3.org/2000/svg">
<path d="M9.5 2C11.4891 2 13.3968 2.79018 14.8033 4.1967C16.2098 5.60322 17 7.51088 17 9.5C17 11.4891 16.2098 13.3968 14.8033 14.8033C13.3968 16.2098 11.4891 17 9.5 17C7.51088 17 5.60322 16.2098 4.1967 14.8033C2.79018 13.3968 2 11.4891 2 9.5C2 7.51088 2.79018 5.60322 4.1967 4.1967C5.60322 2.79018 7.51088 2 9.5 2ZM9.5 2.78947C7.72026 2.78947 6.01341 3.49647 4.75494 4.75494C3.49647 6.01341 2.78947 7.72026 2.78947 9.5C2.78947 11.2797 3.49647 12.9866 4.75494 14.2451C6.01341 15.5035 7.72026 16.2105 9.5 16.2105C10.3812 16.2105 11.2538 16.037 12.068 15.6997C12.8822 15.3625 13.6219 14.8682 14.2451 14.2451C14.8682 13.6219 15.3625 12.8822 15.6997 12.068C16.037 11.2538 16.2105 10.3812 16.2105 9.5C16.2105 7.72026 15.5035 6.01341 14.2451 4.75494C12.9866 3.49647 11.2797 2.78947 9.5 2.78947ZM9.10526 5.15789H9.89474V9.43684L13.6053 11.5763L13.2105 12.2632L9.10526 9.89474V5.15789Z" fill="#202020"/>
</svg>
