<svg width="12" height="12" viewBox="0 0 12 12" fill="none" xmlns="http://www.w3.org/2000/svg">
<path d="M4.25004 8.4986C3.06449 8.4986 2.05964 8.08677 1.23549 7.26312C0.411829 6.43995 0 5.43535 0 4.2493C0 3.06325 0.411829 2.0584 1.23549 1.23475C2.05914 0.411088 3.064 -0.000493947 4.25004 4.44864e-07C5.43609 0.000494837 6.4407 0.412324 7.26386 1.23549C8.08702 2.05865 8.49885 3.06325 8.49935 4.2493C8.49935 4.76446 8.40813 5.26305 8.2257 5.74509C8.04327 6.22712 7.80349 6.63944 7.50636 6.98206L11.8884 11.3626C11.9576 11.4318 11.9947 11.5171 11.9996 11.6185C12.0041 11.7188 11.967 11.8086 11.8884 11.8877C11.8093 11.9668 11.7218 12.0063 11.6259 12.0063C11.53 12.0063 11.4425 11.9668 11.3634 11.8877L6.98205 7.50636C6.61126 7.82228 6.18485 8.06675 5.70281 8.23979C5.22078 8.41283 4.73628 8.49935 4.2493 8.49935M4.2493 7.75776C5.23314 7.75776 6.06397 7.4191 6.74178 6.74178C7.4191 6.06446 7.75776 5.23364 7.75776 4.2493C7.75776 3.26497 7.41934 2.43439 6.74252 1.75756C6.0657 1.08074 5.23512 0.742083 4.25078 0.741589C3.26645 0.741589 2.43562 1.08025 1.75831 1.75756C1.08099 2.43488 0.742083 3.26546 0.741588 4.2493C0.741094 5.23314 1.07975 6.06372 1.75756 6.74104C2.43538 7.41836 3.26596 7.75701 4.2493 7.75701" fill="black" fill-opacity="0.8"/>
</svg>
