<svg width="14" height="14" viewBox="0 0 14 14" fill="none" xmlns="http://www.w3.org/2000/svg">
<path d="M13.1484 4.78125H11.4219V1.32812H13.1484C13.2541 1.32812 13.3555 1.28615 13.4302 1.21143C13.5049 1.1367 13.5469 1.03536 13.5469 0.929688C13.5469 0.824015 13.5049 0.722671 13.4302 0.64795C13.3555 0.573228 13.2541 0.53125 13.1484 0.53125H11.3309C11.2556 0.37249 11.1368 0.238322 10.9884 0.144297C10.84 0.0502719 10.6679 0.000239937 10.4922 0H9.42969C9.25397 0.000239937 9.08192 0.0502719 8.93348 0.144297C8.78504 0.238322 8.66628 0.37249 8.59098 0.53125H7.30469C5.50891 0.533359 3.78728 1.24766 2.51747 2.51747C1.24766 3.78728 0.533359 5.50891 0.53125 7.30469V8.59098C0.37249 8.66628 0.238322 8.78504 0.144297 8.93348C0.0502719 9.08192 0.000239937 9.25397 0 9.42969V10.4922C0.000239937 10.6679 0.0502719 10.84 0.144297 10.9884C0.238322 11.1368 0.37249 11.2556 0.53125 11.3309V13.1484C0.53125 13.2541 0.573228 13.3555 0.64795 13.4302C0.722671 13.5049 0.824015 13.5469 0.929688 13.5469C1.03536 13.5469 1.1367 13.5049 1.21143 13.4302C1.28615 13.3555 1.32812 13.2541 1.32812 13.1484V11.4219H4.78125V13.1484C4.78125 13.2541 4.82323 13.3555 4.89795 13.4302C4.97267 13.5049 5.07402 13.5469 5.17969 13.5469C5.28536 13.5469 5.3867 13.5049 5.46143 13.4302C5.53615 13.3555 5.57812 13.2541 5.57812 13.1484V11.3309C5.73688 11.2556 5.87105 11.1368 5.96508 10.9884C6.0591 10.84 6.10914 10.6679 6.10938 10.4922V9.42969C6.10914 9.25397 6.0591 9.08192 5.96508 8.93348C5.87105 8.78504 5.73688 8.66628 5.57812 8.59098V7.30469C5.57812 6.84677 5.76003 6.40762 6.08382 6.08382C6.40762 5.76003 6.84677 5.57813 7.30469 5.57812H8.59098C8.66628 5.73688 8.78504 5.87105 8.93348 5.96508C9.08192 6.0591 9.25397 6.10914 9.42969 6.10938H10.4922C10.6679 6.10914 10.84 6.0591 10.9884 5.96508C11.1368 5.87105 11.2556 5.73688 11.3309 5.57812H13.1484C13.2541 5.57812 13.3555 5.53615 13.4302 5.46143C13.5049 5.3867 13.5469 5.28536 13.5469 5.17969C13.5469 5.07402 13.5049 4.97267 13.4302 4.89795C13.3555 4.82323 13.2541 4.78125 13.1484 4.78125ZM5.17969 9.29688C5.21491 9.29688 5.24869 9.31087 5.2736 9.33577C5.29851 9.36068 5.3125 9.39446 5.3125 9.42969V10.4922C5.3125 10.5274 5.29851 10.5612 5.2736 10.5861C5.24869 10.611 5.21491 10.625 5.17969 10.625H0.929688C0.894463 10.625 0.860682 10.611 0.835775 10.5861C0.810868 10.5612 0.796875 10.5274 0.796875 10.4922V9.42969C0.796875 9.39446 0.810868 9.36068 0.835775 9.33577C0.860682 9.31087 0.894463 9.29688 0.929688 9.29688H5.17969ZM4.78125 7.30469V8.5H1.32812V7.30469C1.32988 5.72014 1.96012 4.201 3.08056 3.08056C4.201 1.96012 5.72014 1.32988 7.30469 1.32812H8.5V4.78125H7.30469C6.63543 4.78125 5.99358 5.04711 5.52035 5.52035C5.04711 5.99358 4.78125 6.63543 4.78125 7.30469ZM10.4922 5.3125H9.42969C9.39446 5.3125 9.36068 5.29851 9.33577 5.2736C9.31087 5.24869 9.29688 5.21491 9.29688 5.17969V0.929688C9.29688 0.894463 9.31087 0.860682 9.33577 0.835775C9.36068 0.810868 9.39446 0.796875 9.42969 0.796875H10.4922C10.5274 0.796875 10.5612 0.810868 10.5861 0.835775C10.611 0.860682 10.625 0.894463 10.625 0.929688V5.17969C10.625 5.21491 10.611 5.24869 10.5861 5.2736C10.5612 5.29851 10.5274 5.3125 10.4922 5.3125Z" fill="black"/>
</svg>
