<svg width="12" height="12" viewBox="0 0 12 12" fill="none" xmlns="http://www.w3.org/2000/svg">
<path d="M0 0.375C0 0.275544 0.0395088 0.180161 0.109835 0.109835C0.180161 0.0395088 0.275544 0 0.375 0L11.625 0C11.7245 0 11.8198 0.0395088 11.8902 0.109835C11.9605 0.180161 12 0.275544 12 0.375V2.625C12 2.72446 11.9605 2.81984 11.8902 2.89016C11.8198 2.96049 11.7245 3 11.625 3H10.5V4.5H11.625C11.7245 4.5 11.8198 4.53951 11.8902 4.60984C11.9605 4.68016 12 4.77554 12 4.875V7.125C12 7.22446 11.9605 7.31984 11.8902 7.39017C11.8198 7.46049 11.7245 7.5 11.625 7.5H10.5V9H11.625C11.7245 9 11.8198 9.03951 11.8902 9.10983C11.9605 9.18016 12 9.27554 12 9.375V11.625C12 11.7245 11.9605 11.8198 11.8902 11.8902C11.8198 11.9605 11.7245 12 11.625 12H0.375C0.275544 12 0.180161 11.9605 0.109835 11.8902C0.0395088 11.8198 0 11.7245 0 11.625V9.375C0 9.27554 0.0395088 9.18016 0.109835 9.10983C0.180161 9.03951 0.275544 9 0.375 9H1.5V7.5H0.375C0.275544 7.5 0.180161 7.46049 0.109835 7.39017C0.0395088 7.31984 0 7.22446 0 7.125V4.875C0 4.77554 0.0395088 4.68016 0.109835 4.60984C0.180161 4.53951 0.275544 4.5 0.375 4.5H1.5V3H0.375C0.275544 3 0.180161 2.96049 0.109835 2.89016C0.0395088 2.81984 0 2.72446 0 2.625V0.375ZM2.25 3V4.5H5.625V3H2.25ZM6.375 3V4.5H9.75V3H6.375ZM2.25 7.5V9H5.625V7.5H2.25ZM6.375 7.5V9H9.75V7.5H6.375ZM0.75 0.75V2.25H3.375V0.75H0.75ZM4.125 0.75V2.25H7.875V0.75H4.125ZM8.625 0.75V2.25H11.25V0.75H8.625ZM0.75 5.25V6.75H3.375V5.25H0.75ZM4.125 5.25V6.75H7.875V5.25H4.125ZM8.625 5.25V6.75H11.25V5.25H8.625ZM0.75 9.75V11.25H3.375V9.75H0.75ZM4.125 9.75V11.25H7.875V9.75H4.125ZM8.625 9.75V11.25H11.25V9.75H8.625Z" fill="black"/>
</svg>
