<svg width="14" height="16" viewBox="0 0 14 16" fill="none" xmlns="http://www.w3.org/2000/svg">
<path d="M10.6 2.94444H11.4C12.284 2.94444 13 3.25167 13 4.11111V5.66667C13 6.07923 12.8314 6.47489 12.5314 6.76661C12.2313 7.05833 11.8243 7.22222 11.4 7.22222H5.8C5.58783 7.22222 5.38434 7.30417 5.23431 7.45003C5.08429 7.59589 5 7.79372 5 8V14.2222C5 14.4285 5.08429 14.6263 5.23431 14.7722C5.38434 14.9181 5.58783 15 5.8 15H6.6M10.6 2.94444V1.77778C10.6 1.5715 10.5157 1.37367 10.3657 1.22781C10.2157 1.08194 10.0122 1 9.8 1H1.8C1.58783 1 1.38434 1.08194 1.23431 1.22781C1.08429 1.37367 1 1.5715 1 1.77778V4.11111C1 4.31739 1.08429 4.51522 1.23431 4.66108C1.38434 4.80694 1.58783 4.88889 1.8 4.88889H9.8C10.0122 4.88889 10.2157 4.80694 10.3657 4.66108C10.5157 4.51522 10.6 4.31739 10.6 4.11111V2.94444Z" stroke="black" stroke-linecap="round" stroke-linejoin="round"/>
</svg>
