<svg width="10" height="14" viewBox="0 0 10 14" fill="none" xmlns="http://www.w3.org/2000/svg">
<path d="M4.99989 2.66667L2.99989 5.66667H4.33322V7.66667L6.33322 4.66667H4.99989V2.66667Z" fill="black"/>
<path fill-rule="evenodd" clip-rule="evenodd" d="M9.30322 5.091C9.20201 5.94944 8.85695 6.76091 8.30889 7.42934C7.98822 7.82134 7.17322 8.94 6.99989 9.66667H2.33322C2.15989 8.93934 1.34389 7.82034 1.02322 7.42834C0.475407 6.75961 0.130691 5.9479 0.029888 5.08934C-0.0694577 4.23259 0.080057 3.36536 0.460555 2.59134C0.844416 1.81127 1.44148 1.15595 2.18255 0.701336C2.92979 0.241838 3.79001 -0.000972388 4.66722 2.92667e-06C5.54655 2.92667e-06 6.40789 0.243336 7.15189 0.702336C7.89276 1.15714 8.48959 1.81256 8.87322 2.59267C9.25355 3.36686 9.40284 4.23421 9.30322 5.091ZM6.52755 9H2.80522C2.66322 8.67234 2.47356 8.344 2.29689 8.065C2.06433 7.69841 1.81149 7.34508 1.53955 7.00667C1.07232 6.43653 0.778271 5.74443 0.692221 5.01234C0.607564 4.28273 0.734861 3.54417 1.05889 2.885C1.38737 2.2179 1.89823 1.65757 2.53222 1.269C3.17432 0.874249 3.91349 0.665712 4.66722 0.66667C5.42389 0.66667 6.16389 0.876336 6.80222 1.27C7.43596 1.65867 7.94658 2.21899 8.27489 2.886C8.59875 3.54534 8.72582 4.28401 8.64089 5.01367C8.55452 5.7456 8.26024 6.43746 7.79289 7.00734C7.5205 7.34533 7.26775 7.69869 7.03589 8.06567C6.85922 8.34467 6.66955 8.67234 6.52755 9Z" fill="black"/>
<path d="M2.33322 10.6667C2.33322 10.5783 2.36834 10.4935 2.43085 10.431C2.49336 10.3685 2.57815 10.3333 2.66655 10.3333H6.66655C6.75496 10.3333 6.83974 10.3685 6.90226 10.431C6.96477 10.4935 6.99989 10.5783 6.99989 10.6667C6.99989 10.7551 6.96477 10.8399 6.90226 10.9024C6.83974 10.9649 6.75496 11 6.66655 11H2.66655C2.57815 11 2.49336 10.9649 2.43085 10.9024C2.36834 10.8399 2.33322 10.7551 2.33322 10.6667Z" fill="black"/>
<path fill-rule="evenodd" clip-rule="evenodd" d="M2.33322 11.6667H6.99989V12.6667C6.99989 12.8435 6.92965 13.013 6.80463 13.1381C6.6796 13.2631 6.51003 13.3333 6.33322 13.3333H2.99989C2.82308 13.3333 2.65351 13.2631 2.52848 13.1381C2.40346 13.013 2.33322 12.8435 2.33322 12.6667V11.6667ZM2.99989 12.3333H6.33322V12.6667H2.99989V12.3333Z" fill="black"/>
</svg>
